# xmcd CD database file
#
# Track frame offsets:
#	150
#	33553
#	59544
#	82414
#	96840
#	123347
#	151846
#	189038
#	230799
#
# Disc length: 3454 seconds
#
# Revision: 0
# Processed by: cddbd v1.5.2PL0 Copyright (c) Steve Scherf et al.
# Submitted via: CDex 1.60beta1-cs1
#
DISCID=740d7c09
DTITLE=Charles Mingus - Mingus Ah Um  [1959]
DYEAR=1959
DGENRE=Jazz
TTITLE0=Better Get Hit in Yo' Soul
TTITLE1=Goodbye Pork Pie Hat ('Theme for Lester Young')
TTITLE2=Boogie Stop Shuffle
TTITLE3=Self-Portrait in Three Colors
TTITLE4=Open Letter to Duke
TTITLE5=Bird Calls
TTITLE6=Fables of Faubus
TTITLE7=Pussy Cat Dues
TTITLE8=Jelly Roll
EXTD=YEAR: 1959
EXTT0=
EXTT1=
EXTT2=
EXTT3=
EXTT4=
EXTT5=
EXTT6=
EXTT7=
EXTT8=
PLAYORDER=
